<svg xmlns="http://www.w3.org/2000/svg" width="30" height="24"><path d="M21 3H9c-4.969 0-9 3.988-9 9 0 5.012 4.031 9 9 9h12c4.969 0 9-4.031 9-9s-4.031-9-9-9zm-9.418 10.125h-1.5v1.5c0 .617-.504 1.125-1.125 1.125a1.13 1.13 0 01-1.125-1.125v-1.5l-1.457-.043c-.617 0-1.168-.465-1.168-1.082s.508-1.125 1.129-1.125h1.496v-1.5A1.13 1.13 0 018.957 8.25c.621 0 1.125.508 1.125 1.125v1.5h1.5c.621 0 1.125.508 1.125 1.125s-.465 1.125-1.125 1.125zm8.625 3a1.827 1.827 0 01-1.832-1.832c0-.996.836-1.875 1.832-1.875.996 0 1.832.836 1.832 1.875 0 1.035-.754 1.832-1.832 1.832zm3-4.5a1.827 1.827 0 01-1.832-1.832c0-.996.836-1.875 1.832-1.875 1.04 0 1.832.836 1.832 1.875 0 1.035-.754 1.832-1.832 1.832zm0 0" id="surface1"/></svg>