<svg xmlns="http://www.w3.org/2000/svg" width="30" height="30"><path fill="#fff" d="M30 16.867v6.563c-.055 2.593-2.102 4.695-4.688 4.695a2.817 2.817 0 01-2.812-2.816V17.82A2.817 2.817 0 0125.313 15c.632 0 1.226.16 1.773.39A12.147 12.147 0 0015 4.696 12.147 12.147 0 002.914 15.391c.547-.235 1.14-.391 1.773-.391A2.817 2.817 0 017.5 17.82v7.492a2.816 2.816 0 01-2.813 2.813c-2.585 0-4.632-2.102-4.632-4.691L0 16.875c0-8.273 6.727-15 15-15 8.258 0 14.977 6.71 14.945 14.96 0 .009 0 .024.055.032zm0 0" id="surface1"/></svg>