<svg xmlns="http://www.w3.org/2000/svg" width="14" height="16"><path fill="#fff" d="M7 6.332a1.667 1.667 0 100 3.336 1.667 1.667 0 100-3.336zm3.898-1.281a1.687 1.687 0 00-.953-.95C9.29 3.845 7.727 3.903 7 3.903c-.727 0-2.29-.062-2.945.2a1.687 1.687 0 00-.953.949c-.258.656-.2 2.222-.2 2.949 0 .727-.058 2.29.203 2.95.168.433.516.777.95.948.656.258 2.218.2 2.945.2.73 0 2.29.062 2.95-.2.433-.171.777-.515.948-.949.262-.656.2-2.222.2-2.949 0-.727.062-2.29-.2-2.95zM7 10.562A2.564 2.564 0 014.437 8 2.564 2.564 0 017 5.437a2.564 2.564 0 011.813 4.375 2.563 2.563 0 01-1.813.75zM9.668 5.93a.598.598 0 01-.598-.598.598.598 0 11.598.598zM12.5 1h-11A1.5 1.5 0 000 2.5v11A1.5 1.5 0 001.5 15h11a1.5 1.5 0 001.5-1.5v-11A1.5 1.5 0 0012.5 1zm-.535 9.063c-.04.8-.223 1.511-.809 2.093-.582.582-1.293.77-2.094.809-.824.047-3.296.047-4.124 0-.801-.043-1.508-.223-2.094-.809-.586-.586-.77-1.293-.809-2.094-.043-.824-.043-3.3 0-4.124.043-.801.223-1.512.809-2.094.586-.582 1.297-.766 2.094-.805.828-.047 3.3-.047 4.125 0 .8.04 1.511.223 2.093.809.586.582.77 1.293.809 2.093.047.825.047 3.293 0 4.122zm0 0" id="surface1"/></svg>