<svg xmlns="http://www.w3.org/2000/svg" width="12" height="14" viewBox="0 0 12 13"><path d="M6 5.145c-.79 0-1.43.609-1.43 1.355 0 .75.64 1.355 1.43 1.355.79 0 1.43-.609 1.43-1.355S6.79 5.145 6 5.145zm3.34-1.04a1.403 1.403 0 00-.813-.773c-.562-.21-1.902-.164-2.527-.164-.625 0-1.96-.047-2.527.164-.371.14-.668.418-.813.773-.223.532-.172 1.805-.172 2.395 0 .59-.05 1.86.172 2.395.149.355.442.632.817.773.562.21 1.898.164 2.523.164.625 0 1.96.047 2.527-.164.371-.14.668-.418.813-.773.226-.532.176-1.805.176-2.395 0-.59.05-1.86-.176-2.395zM6 8.582c-1.215 0-2.195-.934-2.195-2.082 0-1.148.98-2.082 2.195-2.082 1.215 0 2.195.934 2.195 2.082 0 .55-.23 1.082-.64 1.473A2.27 2.27 0 016 8.582zm2.285-3.766c-.281 0-.512-.218-.512-.484a.5.5 0 01.512-.488c.285 0 .516.219.516.488 0 .129-.055.25-.153.344a.518.518 0 01-.359.14zm2.43-4.003h-9.43C.575.813 0 1.359 0 2.03v8.938c0 .672.574 1.219 1.285 1.219h9.43c.71 0 1.285-.547 1.285-1.22V2.032c0-.672-.574-1.219-1.285-1.219zm-.461 7.363c-.031.652-.188 1.226-.691 1.699-.5.477-1.11.629-1.793.66a59.26 59.26 0 01-3.536 0c-.687-.035-1.293-.183-1.796-.66-.5-.473-.66-1.05-.692-1.7a47.974 47.974 0 010-3.35c.035-.653.188-1.227.692-1.7.503-.477 1.113-.625 1.796-.656.707-.04 2.829-.04 3.536 0 .687.031 1.293.18 1.793.656.5.477.66 1.05.69 1.703.044.668.044 2.676 0 3.348zm0 0" id="surface1"/></svg>