<svg xmlns="http://www.w3.org/2000/svg" width="25" height="20"><path fill="#fff" d="M23.992 13.078c-.144-.351-.488-.613-.867-.613H21.25v-5.59a3.13 3.13 0 00-3.125-3.125h-5a1.25 1.25 0 100 2.5h5c.344 0 .625.281.625.625v5.59h-1.875a.94.94 0 00-.867.578.946.946 0 00.203 1.023l3.125 3.125A.847.847 0 0020 17.5a.94.94 0 00.664-.273l3.125-3.13a.938.938 0 00.203-1.019zm-12.117.672h-5a.627.627 0 01-.625-.625V7.5h1.875a.94.94 0 00.867-.578.946.946 0 00-.203-1.024L5.664 2.773A.937.937 0 005 2.5a.94.94 0 00-.664.273L1.21 5.898a.946.946 0 00-.203 1.024.94.94 0 00.867.578H3.75v5.625a3.13 3.13 0 003.125 3.125h5a1.25 1.25 0 100-2.5zm0 0" id="surface1"/></svg>