<svg xmlns="http://www.w3.org/2000/svg" width="24" height="21" viewBox="0 0 23 21"><path fill="#fff" d="M3.832 0c.461 0 .856.336.945.8l.059.512h16.797c.812 0 1.46.833 1.23 1.668l-2.156 7.875a1.283 1.283 0 01-1.23.957H6.817l.367 1.97h12.3a.97.97 0 01.961.984.97.97 0 01-.96.984H6.351c-.422 0-.817-.336-.907-.8L3.04 1.968H.957C.43 1.969 0 1.527 0 .984 0 .441.43 0 .957 0zm7.027 7.383h1.758v1.804c0 .454.324.82.801.82a.81.81 0 00.797-.82V7.383h1.758a.81.81 0 00.797-.82c0-.489-.36-.82-.797-.82h-1.758V3.936a.81.81 0 00-.797-.82c-.477 0-.8.367-.8.82v1.805h-1.759c-.472 0-.796.332-.796.82 0 .454.324.82.796.82zM5.11 19.03c0-1.086.86-1.968 1.918-1.968 1.059 0 1.918.882 1.918 1.968 0 1.086-.86 1.969-1.918 1.969-1.058 0-1.918-.883-1.918-1.969zm15.336 0c0 1.086-.86 1.969-1.918 1.969-1.058 0-1.918-.883-1.918-1.969s.86-1.968 1.918-1.968c1.059 0 1.918.882 1.918 1.968zm0 0" id="surface1"/></svg>