<svg xmlns="http://www.w3.org/2000/svg" width="15" height="15"><path d="M13.457 4.445c.012.133.012.266.012.399 0 4.066-3.094 8.746-8.746 8.746A8.693 8.693 0 010 12.21c.246.028.484.04.742.04a6.15 6.15 0 003.817-1.313 3.084 3.084 0 01-2.875-2.132 3.272 3.272 0 001.39-.059A3.073 3.073 0 01.61 5.73v-.039c.41.23.887.372 1.391.391A3.072 3.072 0 01.629 3.523c0-.574.152-1.097.418-1.554a8.732 8.732 0 006.34 3.218 3.525 3.525 0 01-.078-.703 3.072 3.072 0 013.074-3.074c.887 0 1.687.371 2.246.969a6.06 6.06 0 001.953-.742 3.085 3.085 0 01-1.352 1.695A6.143 6.143 0 0015 2.855a6.554 6.554 0 01-1.543 1.59zm0 0" id="surface1"/></svg>